<!-- Generated by IcoMoon.io -->
<svg version="1.1" xmlns="http://www.w3.org/2000/svg" width="43" height="32" viewBox="0 0 43 32">
<title>care</title>
<path fill="#fff" d="M32.525 22.669c1.478-0.493 2.957-0.963 4.452-1.39 0.798-0.227 1.604-0.468 2.417-0.626 0.244-0.051 0.524-0.081 0.81-0.081 0.164 0 0.326 0.010 0.485 0.028l-0.019-0.002c0.099 0 0.030 0 0 0l0.136 0.025c0.089 0.017 0.175 0.037 0.264 0.062 0.169 0.039 0.318 0.108 0.447 0.202l-0.004-0.002c0.181 0.124 0.303 0.322 0.323 0.549l0 0.003c0.002 0.039 0.004 0.085 0.004 0.132s-0.001 0.092-0.004 0.138l0-0.006c0.012-0.104-0.030 0.104-0.037 0.133-0.019 0.074-0.040 0.137-0.065 0.197l0.004-0.010c-0.050 0.108-0.102 0.199-0.16 0.286l0.005-0.007c-0.211 0.279-0.467 0.512-0.759 0.691l-0.012 0.007c-0.343 0.21-0.748 0.418-1.168 0.599l-0.064 0.025c-1.942 0.865-3.888 1.725-5.83 2.577-1.838 0.813-3.696 1.673-5.527 2.422-1.525 0.666-3.306 1.207-5.16 1.538l-0.147 0.022c-0.808 0.127-1.739 0.2-2.687 0.2s-1.879-0.073-2.789-0.212l0.102 0.013c-1.035-0.15-1.964-0.395-2.848-0.733l0.091 0.030c-0.594-0.224-1.153-0.532-1.725-0.788-3.087-1.365-6.515-2.309-9.915-2.156-0.505 0.022-1.003 0.079-1.503 0.148-0.439 0.062-0.678 0.621-0.572 1.008 0.131 0.473 0.567 0.633 1.008 0.572 0.546-0.067 1.179-0.105 1.82-0.105 1.322 0 2.605 0.161 3.833 0.465l-0.109-0.023c1.039 0.234 1.896 0.483 2.731 0.777l-0.171-0.052c0.362 0.121 0.72 0.246 1.077 0.387l0.471 0.187 0.138 0.057 0.037 0.015c-0.086-0.035 0.025 0 0.034 0.015l0.158 0.069c0.655 0.283 1.284 0.618 1.944 0.887 0.824 0.342 1.787 0.616 2.789 0.776l0.075 0.010c1.007 0.177 2.167 0.277 3.35 0.277 0.923 0 1.832-0.061 2.722-0.18l-0.104 0.011c2.111-0.322 4.009-0.872 5.794-1.636l-0.154 0.059c2.006-0.806 3.972-1.725 5.951-2.595 2.025-0.897 4.061-1.777 6.081-2.688 0.907-0.412 1.777-0.912 2.37-1.725 0.344-0.462 0.55-1.043 0.55-1.672 0-0.409-0.087-0.799-0.245-1.149l0.007 0.018c-0.424-0.892-1.392-1.318-2.321-1.444-1.040-0.14-2.040 0.076-3.041 0.347q-2.383 0.638-4.746 1.4l-1.040 0.34c-0.348 0.107-0.597 0.426-0.597 0.802 0 0.073 0.009 0.144 0.027 0.211l-0.001-0.006c0.1 0.352 0.418 0.605 0.795 0.605 0.079 0 0.156-0.011 0.228-0.032l-0.006 0.001z"></path>
<path fill="#fff" d="M1.232 21.134c0.326-0.189 0.724-0.387 1.134-0.564l0.078-0.030-0.057 0.025 0.086-0.037 0.175-0.069q0.197-0.081 0.392-0.155c0.281-0.106 0.562-0.209 0.845-0.308 1.259-0.439 2.543-0.811 3.834-1.148q2.028-0.527 4.090-0.926c0.621-0.118 1.244-0.227 1.868-0.32 0.15-0.025 0.303-0.044 0.453-0.067h-0.047l0.101-0.015 0.232-0.030c0.264-0.032 0.525-0.059 0.786-0.084 0.451-0.039 0.902-0.069 1.353-0.064 0.222 0 0.446 0.015 0.668 0.039l0.446 0.054h0.049c0.163 0.027 0.323 0.057 0.493 0.099 0.071 0.022 0.145 0.044 0.214 0.071-0.136-0.054 0.057 0.035 0.099 0.059l0.094 0.059c-0.015 0-0.089-0.074-0.020 0 0.030 0.025 0.057 0.057 0.086 0.079 0.136 0.099-0.054 0.113-0.062-0.145 0.052 0.224 0.146 0.421 0.276 0.59l-0.003-0.004c0.246 0.381 0.579 0.687 0.972 0.895l0.014 0.007c0.827 0.448 1.791 0.769 2.812 0.907l0.043 0.005c0.919 0.104 1.836 0.246 2.75 0.379 0.954 0.089 1.821 0.244 2.662 0.464l-0.114-0.025c0.081 0.027 0.163 0.052 0.246 0.081l0.116 0.047c-0.017 0-0.089-0.042 0 0s0.14 0.071 0.209 0.111 0.219 0.158 0.116 0.069c0.065 0.057 0.125 0.116 0.181 0.178l0.002 0.002c0.062 0.074-0.012 0-0.020-0.022 0.018 0.026 0.036 0.057 0.052 0.088l0.002 0.005c0.042 0.084 0-0.017 0-0.030 0.013 0.032 0.026 0.073 0.036 0.114l0.001 0.007c0.025 0.101 0 0 0-0.015 0.020 0.039 0 0.123 0 0.020-0.050 0.233-0.199 0.424-0.4 0.53l-0.004 0.002c-0.3 0.17-0.659 0.273-1.040 0.281l-0.002 0c-0.061 0.001-0.132 0.001-0.204 0.001-0.791 0-1.572-0.045-2.339-0.133l0.094 0.009c-0.692-0.047-1.387-0.081-2.080-0.108-0.551-0.032-1.196-0.051-1.845-0.051-0.901 0-1.793 0.035-2.675 0.105l0.117-0.007c-0.325 0.030-0.653 0.071-0.986 0.128-0.436 0.074-0.68 0.611-0.572 1.005 0.106 0.349 0.425 0.599 0.803 0.599 0.073 0 0.143-0.009 0.21-0.027l-0.006 0.001c0.059 0 0.121-0.020 0.182-0.030 0.14-0.025-0.123 0.012 0.076 0s0.335-0.037 0.493-0.049c0.362-0.030 0.724-0.047 1.087-0.057 0.791-0.022 1.584-0.015 2.373 0 1.55 0.042 3.090 0.207 4.637 0.246 1.027 0.035 2.057-0.123 2.868-0.793 0.488-0.382 0.798-0.971 0.798-1.632 0-0.347-0.086-0.674-0.237-0.962l0.005 0.011c-0.402-0.739-1.232-1.131-1.993-1.348-0.784-0.193-1.734-0.353-2.704-0.447l-0.085-0.007-1.533-0.214q-0.355-0.047-0.71-0.104c-0.153-0.022-0.306-0.044-0.458-0.059 0 0-0.14-0.015-0.044 0s-0.113-0.022-0.131-0.025c-0.552-0.109-1.033-0.251-1.495-0.432l0.058 0.020c-0.333-0.131-0.761-0.313-0.929-0.532 0 0-0.069-0.113-0.091-0.158-0.017-0.029-0.035-0.065-0.051-0.101l-0.003-0.007c0 0.025 0.049 0.099 0-0.017-0.096-0.238-0.241-0.439-0.424-0.597l-0.002-0.002c-0.308-0.273-0.68-0.481-1.092-0.596l-0.020-0.005c-0.616-0.16-1.324-0.252-2.052-0.252-0.109 0-0.218 0.002-0.326 0.006l0.016-0c-1.273 0.048-2.477 0.185-3.651 0.406l0.152-0.024c-1.409 0.227-2.809 0.52-4.189 0.85-2.563 0.614-5.197 1.308-7.577 2.464-0.202 0.096-0.399 0.2-0.594 0.31-0.912 0.527-0.089 1.942 0.828 1.414z"></path>
<path fill="#fff" d="M23.351 3.132h-0.089c-0.704-0.583-1.489-1.13-2.317-1.609l-0.083-0.044c-0.597-0.379-1.297-0.656-2.047-0.788l-0.035-0.005c-0.121-0.021-0.26-0.033-0.402-0.033-0.647 0-1.236 0.246-1.68 0.65l0.002-0.002c-0.341 0.367-0.573 0.839-0.644 1.362l-0.001 0.013c-0.315 1.929 0.946 3.73 2.208 5.209 1.585 1.829 3.248 3.485 5.025 5.013l0.063 0.053c1.84-1.58 3.503-3.236 5.038-5.007l0.050-0.059c1.271-1.478 2.523-3.277 2.218-5.199-0.072-0.536-0.305-1.008-0.647-1.376l0.001 0.002c-0.441-0.402-1.031-0.649-1.678-0.649-0.142 0-0.281 0.012-0.417 0.035l0.015-0.002c-0.788 0.132-1.492 0.407-2.116 0.798l0.024-0.014c-0.911 0.521-1.696 1.066-2.43 1.67l0.030-0.024z"></path>
<path fill="#fff" d="M23.351 2.464h-0.089l0.478 0.197c-1.232-0.986-2.629-2.023-4.157-2.479-1.432-0.429-3.181-0.079-3.873 1.375-1.441 3.028 1.313 6.027 3.216 8.077 1.241 1.337 2.528 2.575 3.88 3.74l0.062 0.053c0.125 0.117 0.293 0.19 0.478 0.19s0.354-0.072 0.478-0.19l-0 0c1.276-1.096 2.437-2.199 3.54-3.356l0.018-0.019c1.069-1.126 2.168-2.294 2.984-3.625 0.776-1.269 1.271-2.821 0.843-4.3-0.205-0.758-0.693-1.377-1.341-1.749l-0.014-0.007c-0.457-0.235-0.998-0.373-1.571-0.373-0.229 0-0.452 0.022-0.668 0.064l0.022-0.004c-0.922 0.201-1.736 0.552-2.458 1.032l0.026-0.016c-0.851 0.514-1.583 1.036-2.273 1.607l0.031-0.025 0.476-0.197h-0.089c-0.87 0-0.87 1.35 0 1.35 0.409 0 0.653-0.276 0.959-0.508s0.604-0.441 0.914-0.646c0.523-0.367 1.119-0.708 1.746-0.994l0.070-0.029c0.968-0.404 2.348-0.493 2.811 0.67s-0.052 2.481-0.675 3.487c-0.739 1.185-1.725 2.218-2.666 3.225-1.145 1.205-2.331 2.332-3.573 3.396l-0.064 0.054h0.956q-1.688-1.449-3.243-3.048c-0.99-0.972-1.9-2.018-2.722-3.132l-0.050-0.071c-0.685-0.986-1.326-2.218-1.092-3.45 0.062-0.56 0.401-1.028 0.875-1.27l0.009-0.004c0.244-0.093 0.526-0.147 0.821-0.147 0.284 0 0.557 0.050 0.81 0.142l-0.016-0.005c0.788 0.278 1.471 0.636 2.091 1.075l-0.026-0.018q0.493 0.315 0.968 0.665c0.343 0.246 0.646 0.609 1.094 0.609 0.875-0.002 0.875-1.345 0.005-1.345z"></path>
</svg>
