<!-- Generated by IcoMoon.io -->
<svg version="1.1" xmlns="http://www.w3.org/2000/svg" width="36" height="32" viewBox="0 0 36 32">
<title>fair</title>
<path fill="#fff" d="M6.601 6.463h20.406c0.941 0 1.891 0.032 2.833 0h0.041c0.911 0 0.913-1.413 0-1.413h-20.401c-0.944 0-1.891-0.032-2.833 0h-0.041c-0.911 0-0.913 1.413 0 1.413z"></path>
<path fill="#fff" d="M0 18.773c0.022 2.585 2.010 4.61 4.386 5.34 2.475 0.763 5.427 0.187 7.264-1.689 0.939-0.94 1.526-2.23 1.549-3.658l0-0.004c0-0.894-1.383-0.896-1.39 0 0 0.138 0 0.274-0.022 0.411 0 0.022-0.015 0.138 0 0.017q-0.013 0.101-0.032 0.2c-0.063 0.278-0.137 0.515-0.227 0.743l0.012-0.035c-0.069 0.2 0.058-0.114-0.032 0.080-0.028 0.060-0.056 0.123-0.086 0.181-0.052 0.101-0.106 0.198-0.164 0.295-0.114 0.197-0.236 0.366-0.372 0.523l0.004-0.004c-0.308 0.366-0.663 0.679-1.059 0.934l-0.019 0.011c-0.197 0.128-0.428 0.257-0.667 0.372l-0.037 0.016c-0.183 0.087-0.406 0.173-0.637 0.244l-0.038 0.010c-0.551 0.175-1.185 0.276-1.843 0.276-0.492 0-0.971-0.056-1.431-0.163l0.043 0.008c-0.548-0.124-1.032-0.31-1.479-0.555l0.029 0.015c-0.451-0.234-0.837-0.522-1.171-0.861l-0.001-0.001c-0.373-0.36-0.676-0.789-0.89-1.267l-0.010-0.026c-0.090-0.192 0.024 0.069-0.022-0.050q-0.041-0.11-0.078-0.215c-0.036-0.099-0.073-0.229-0.105-0.361l-0.005-0.027c-0.013-0.067-0.028-0.131-0.039-0.198 0-0.030-0.028-0.215-0.015-0.082-0.016-0.144-0.026-0.311-0.026-0.479 0-0 0-0.001 0-0.001v0c-0.009-0.894-1.392-0.894-1.392-0.002z"></path>
<path fill="#fff" d="M5.995 5.45l-5.89 12.913c-0.215 0.465 0.032 1.047 0.599 1.047h11.79c0.569 0 0.814-0.582 0.601-1.047l-2.010-4.386-3.889-8.527c-0.157-0.343-0.646-0.431-0.952-0.25-0.205 0.128-0.339 0.352-0.339 0.607 0 0.127 0.033 0.246 0.091 0.349l-0.002-0.004 5.892 12.913 0.607-1.047h-11.79l0.601 1.047 2.001-4.386 3.884-8.52c0.055-0.099 0.088-0.218 0.088-0.344 0-0.255-0.134-0.48-0.335-0.607l-0.003-0.002c-0.293-0.181-0.788-0.099-0.946 0.243z"></path>
<path fill="#fff" d="M35.089 18.773c0 0.138 0 0.274-0.019 0.411 0 0.022-0.017 0.138 0 0.017 0 0.067-0.022 0.134-0.034 0.2-0.058 0.277-0.128 0.515-0.214 0.744l0.012-0.035c-0.071 0.2 0.058-0.114-0.032 0.080-0.028 0.060-0.056 0.123-0.088 0.181-0.050 0.101-0.103 0.198-0.162 0.295-0.114 0.197-0.236 0.366-0.372 0.523l0.004-0.004c-0.308 0.366-0.663 0.679-1.059 0.934l-0.019 0.011c-0.197 0.128-0.428 0.257-0.667 0.372l-0.037 0.016c-0.181 0.085-0.405 0.172-0.635 0.244l-0.040 0.011c-0.551 0.175-1.185 0.276-1.843 0.276-0.492 0-0.971-0.056-1.431-0.163l0.043 0.008c-0.548-0.123-1.032-0.31-1.479-0.555l0.029 0.015c-0.451-0.234-0.837-0.522-1.171-0.861l-0.001-0.001c-0.374-0.359-0.678-0.788-0.89-1.267l-0.010-0.026c-0.090-0.192 0.024 0.069-0.022-0.050-0.028-0.073-0.054-0.146-0.080-0.215-0.041-0.127-0.078-0.256-0.108-0.388-0.015-0.067-0.028-0.131-0.041-0.198 0-0.030-0.026-0.215-0.013-0.082-0.017-0.159-0.026-0.319-0.028-0.48 0-0.894-1.398-0.896-1.39 0 0.019 2.585 2.010 4.61 4.386 5.34 2.475 0.763 5.427 0.187 7.264-1.689 0.939-0.94 1.526-2.23 1.549-3.658l0-0.004c0-0.894-1.383-0.896-1.392 0z"></path>
<path fill="#fff" d="M29.283 6.153l5.892 12.913 0.601-1.047h-11.782l0.599 1.047 2.001-4.386 3.891-8.52c0.055-0.099 0.088-0.218 0.088-0.344 0-0.255-0.134-0.48-0.335-0.607l-0.003-0.002c-0.299-0.175-0.795-0.093-0.952 0.25l-2.001 4.386-3.882 8.52c-0.215 0.465 0.032 1.047 0.601 1.047h11.782c0.567 0 0.812-0.582 0.599-1.047l-2.001-4.386-3.895-8.527c-0.157-0.343-0.646-0.431-0.952-0.25-0.204 0.128-0.338 0.352-0.338 0.608 0 0.126 0.033 0.245 0.090 0.348l-0.002-0.004z"></path>
<path fill="#fff" d="M17.59 3.716l-0.015 2.443-0.032 5.862-0.039 7.062-0.034 6.107c0 0.991-0.047 1.991-0.017 2.984v0.047c0 0.894 1.383 0.896 1.39 0l0.013-2.441 0.032-5.864 0.041-7.062 0.030-6.112c0-0.993 0.045-1.993 0.015-2.984v-0.043c0-0.894-1.383-0.896-1.387 0z"></path>
<path fill="#fff" d="M13.092 28.986h10.102c0.911 0 0.911-1.415 0-1.415h-10.102c-0.911 0-0.913 1.415 0 1.415z"></path>
<path fill="#fff" d="M12.422 27.922l-2.131 3.012c-0.059 0.102-0.094 0.224-0.094 0.354 0 0.259 0.138 0.486 0.345 0.611l0.003 0.002c0.101 0.057 0.222 0.090 0.35 0.090 0.26 0 0.487-0.136 0.616-0.341l0.002-0.003 2.135-3.012c0.060-0.102 0.096-0.225 0.096-0.356 0-0.259-0.139-0.486-0.347-0.61l-0.003-0.002c-0.101-0.057-0.222-0.090-0.35-0.090-0.26 0-0.487 0.136-0.616 0.341l-0.002 0.003z"></path>
<path fill="#fff" d="M22.657 28.635l2.133 3.012c0.129 0.209 0.357 0.346 0.617 0.346 0.129 0 0.251-0.034 0.356-0.093l-0.004 0.002c0.297-0.192 0.483-0.646 0.252-0.967l-2.133-3.012c-0.129-0.209-0.357-0.346-0.617-0.346-0.129 0-0.251 0.034-0.356 0.093l0.004-0.002c-0.297 0.192-0.483 0.646-0.252 0.967z"></path>
<path fill="#fff" d="M19.21 2.049c0 0.043 0 0.084 0 0.125 0 0.108 0 0 0-0.019-0.004 0.072-0.021 0.14-0.049 0.202l0.001-0.003c-0.014 0.046-0.028 0.083-0.044 0.12l0.003-0.008c0-0.017 0.052-0.101 0-0.019s-0.078 0.138-0.121 0.215 0.056-0.045 0 0c-0.024 0.019-0.043 0.052-0.065 0.073s-0.183 0.155-0.069 0.071c-0.047 0.035-0.1 0.071-0.156 0.103l-0.008 0.004-0.071 0.037c-0.090 0.052 0.095-0.024-0.037 0.015-0.049 0.018-0.114 0.036-0.181 0.051l-0.013 0.003c-0.039 0-0.114 0.045 0 0-0.011 0.001-0.023 0.001-0.035 0.001-0.020 0-0.039-0.001-0.058-0.004l0.002 0c-0.069 0-0.138 0-0.215 0s0.129 0.028 0 0l-0.119-0.028-0.114-0.037c-0.032-0.011-0.078-0.045 0.017 0-0.056-0.032-0.116-0.058-0.172-0.095l-0.084-0.056c-0.067-0.037 0.088 0.086 0 0l-0.166-0.17c0.075 0.075 0.032 0.045 0.013 0.017l-0.065-0.099c-0.019-0.034-0.101-0.215-0.052-0.086-0.021-0.051-0.042-0.114-0.058-0.179l-0.002-0.010-0.019-0.080c-0.024-0.108 0 0.103 0-0.041-0.002-0.028-0.003-0.061-0.003-0.095s0.001-0.066 0.003-0.099l-0 0.004v-0.039c0-0.062 0-0.056 0 0.019 0 0 0.013-0.071 0.015-0.080 0.020-0.080 0.040-0.145 0.063-0.208l-0.004 0.014c0.039-0.125-0.056 0.095 0-0.017l0.056-0.106c0.019-0.032 0.144-0.183 0.052-0.082 0.045-0.050 0.088-0.099 0.136-0.142l0.041-0.030c-0.062 0.056 0.032-0.024 0.039-0.028 0.059-0.037 0.129-0.076 0.202-0.111l0.013-0.006c-0.015 0-0.11 0.039-0.017 0l0.114-0.037 0.080-0.022s0.129-0.013 0.032-0.013 0.043 0 0.052 0h0.209c0.125 0-0.088-0.024 0.022 0s0.155 0.039 0.233 0.065c0.116 0.037-0.058-0.045 0 0 0.034 0.021 0.074 0.043 0.116 0.062l0.007 0.003 0.065 0.043 0.065 0.045c-0.056-0.045-0.062-0.047-0.017 0l0.14 0.14c0.090 0.090-0.058-0.095 0.013 0.013l0.065 0.099 0.056 0.106c0.054 0.095-0.028-0.097 0 0.017 0.026 0.078 0.045 0.153 0.065 0.233 0 0.034 0.037 0.086 0-0.022 0.004 0.025 0.006 0.054 0.006 0.084s-0.002 0.059-0.007 0.087l0-0.003c0.026 0.277 0.257 0.493 0.539 0.493s0.513-0.215 0.538-0.49l0-0.002c-0.006-0.875-0.552-1.622-1.322-1.923l-0.014-0.005c-0.204-0.075-0.44-0.118-0.685-0.118-0.62 0-1.176 0.276-1.551 0.712l-0.002 0.003c-0.305 0.359-0.49 0.827-0.49 1.339 0 0.379 0.102 0.735 0.28 1.041l-0.005-0.010c0.362 0.611 1.018 1.015 1.769 1.015 1.131 0 2.049-0.917 2.049-2.049 0-0.002 0-0.003 0-0.005v0c-0.026-0.277-0.257-0.492-0.539-0.492s-0.513 0.215-0.538 0.49l-0 0.002z"></path>
</svg>
