<!-- Generated by IcoMoon.io -->
<svg version="1.1" xmlns="http://www.w3.org/2000/svg" width="50" height="32" viewBox="0 0 50 32">
<title>incivil</title>
<path fill="#fff" d="M7.989 32h-1.278c0-0.337 0-0.647 0-0.933 0.016-2.055 0.024-2.824-1.041-4.245s-3.511-5.467-3.897-6.403c-2.5-6.249-2.354-10.826 0.437-13.601 4.24-4.221 12.894-2.503 13.674-2.176 1.81 0.767 3.169 2.296 3.687 4.173l0.011 0.045c0.125 0.516 0.221 1.13 0.267 1.757l0.002 0.039c0.043 0.658 0.149 1.271 0.312 1.86l-0.015-0.064c0.294 0.955 0.944 1.888 1.939 2.764 0.073 0.067 0.151 0.132 0.227 0.197 0.519 0.398 0.947 0.884 1.269 1.441l0.012 0.023c0.426 0.858 0.31 2.106-0.62 2.632-0.216 0.115-0.467 0.201-0.732 0.246l-0.015 0.002c-0.127 0.022-0.24 0.053-0.348 0.093l0.013-0.004c-0.472 0.197-0.615 0.982-0.512 1.659 0.035 0.227 0.086 0.456 0.138 0.699 0.148 0.677 0.316 1.44 0.132 2.22-0.334 1.408-1.845 2.786-3.476 2.519l-0.744-0.116c-0.817-0.109-1.522-0.248-2.213-0.425l0.131 0.028 0.078 5.507-1.278 0.016-0.084-5.871 0.086-1.411 0.893 0.326c0.745 0.253 1.621 0.451 2.525 0.558l0.062 0.006 0.763 0.116c0.898 0.151 1.826-0.712 2.025-1.551 0.116-0.496 0-1.057-0.135-1.653-0.057-0.251-0.113-0.512-0.154-0.777-0.178-1.171 0.148-2.559 1.284-3.031 0.16-0.065 0.349-0.121 0.544-0.159l0.019-0.003c0.142-0.021 0.27-0.060 0.389-0.114l-0.009 0.004c0.227-0.127 0.27-0.599 0.105-0.949-0.26-0.42-0.584-0.774-0.964-1.058l-0.010-0.007-0.237-0.197c-1.173-1.038-1.95-2.158-2.314-3.347-0.172-0.598-0.296-1.296-0.346-2.014l-0.002-0.033c-0.044-0.6-0.13-1.153-0.257-1.69l0.014 0.072c-0.425-1.524-1.505-2.736-2.909-3.332l-0.033-0.013c-1.052-0.426-8.795-1.583-12.293 1.888-2.392 2.39-2.443 6.502-0.143 12.244 0.297 0.752 2.697 4.72 3.733 6.098 1.324 1.767 1.316 2.856 1.295 5.022-0.003 0.283-0.005 0.591-0.005 0.922z"></path>
<path fill="#fff" d="M43.546 31.962h-1.276c0-0.332 0-0.637 0-0.92-0.022-2.158-0.032-3.255 1.295-5.025 1.036-1.378 3.436-5.343 3.741-6.109 2.292-5.728 2.241-9.841-0.151-12.223-3.506-3.482-11.241-2.325-12.293-1.888-1.441 0.605-2.524 1.818-2.939 3.309l-0.008 0.036c-0.112 0.465-0.199 1.018-0.241 1.583l-0.002 0.035c-0.056 0.751-0.179 1.447-0.366 2.117l0.018-0.076c-0.364 1.184-1.144 2.309-2.314 3.344l-0.24 0.21c-0.388 0.29-0.712 0.643-0.962 1.046l-0.009 0.016c-0.175 0.353-0.124 0.809 0.105 0.952 0.11 0.049 0.238 0.088 0.371 0.109l0.009 0.001c0.214 0.039 0.403 0.094 0.584 0.166l-0.020-0.007c1.135 0.472 1.462 1.864 1.284 3.031-0.040 0.27-0.097 0.539-0.154 0.777-0.129 0.596-0.251 1.16-0.135 1.656 0.2 0.839 1.127 1.699 2.025 1.551 0.254-0.043 0.507-0.081 0.761-0.119 0.965-0.111 1.842-0.309 2.681-0.59l-0.092 0.027 0.893-0.326 0.084 1.413v0.024l-0.081 5.847-1.278-0.019 0.078-5.505c-0.564 0.148-1.275 0.286-1.999 0.383l-0.097 0.011-0.742 0.113c-1.632 0.27-3.142-1.111-3.476-2.516-0.183-0.779-0.016-1.545 0.129-2.22 0.054-0.245 0.105-0.475 0.138-0.699 0.105-0.677-0.038-1.464-0.51-1.659-0.096-0.036-0.209-0.067-0.326-0.087l-0.011-0.002c-0.279-0.049-0.529-0.136-0.758-0.257l0.014 0.007c-0.93-0.523-1.046-1.772-0.623-2.63 0.333-0.587 0.762-1.079 1.272-1.472l0.011-0.008 0.227-0.197c0.992-0.879 1.645-1.81 1.939-2.764 0.146-0.524 0.252-1.137 0.295-1.767l0.002-0.029c0.049-0.667 0.145-1.282 0.286-1.879l-0.016 0.080c0.53-1.922 1.889-3.451 3.659-4.2l0.042-0.016c0.793-0.324 9.44-2.044 13.674 2.176 2.789 2.775 2.937 7.352 0.437 13.601-0.364 0.928-2.848 5.008-3.897 6.408s-1.060 2.19-1.041 4.242c0.003 0.289 0.005 0.599 0.005 0.933z"></path>
<path fill="#fff" d="M25.368 0.202l-2.581 3.611c-0.038 0.066-0.061 0.146-0.061 0.231 0 0.209 0.138 0.386 0.327 0.445l0.003 0.001 3.714 1.349-0.27-0.68-2.837 3.846c-0.353 0.477 0.448 0.939 0.809 0.464l2.829-3.832c0.192-0.27-0.027-0.585-0.27-0.677l-3.714-1.349 0.27 0.68 2.573-3.622c0.351-0.485-0.45-0.939-0.793-0.467z"></path>
</svg>
