<!-- Generated by IcoMoon.io -->
<svg version="1.1" xmlns="http://www.w3.org/2000/svg" width="32" height="32" viewBox="0 0 32 32">
<title>like</title>
<path fill="#fff" d="M11.262 15.095c0.846-0.303 1.577-0.733 2.209-1.274l-0.009 0.008c0.744-0.626 1.41-1.294 2.013-2.016l0.021-0.025c0.347-0.414 0.622-0.895 0.936-1.335s0.62-0.866 0.905-1.314c0.278-0.417 0.536-0.896 0.749-1.399l0.022-0.058c0.086-0.205 0.157-0.446 0.203-0.696l0.003-0.022c0.014-0.096 0.029-0.201 0.041-0.302 0-0.026 0.034-0.196 0-0.043 0-0.038 0.081-0.263 0.036-0.158 0.314-0.751 0.995-1.273 1.235-2.072 0.044-0.154 0.070-0.331 0.070-0.514 0-0.036-0.001-0.072-0.003-0.108l0 0.005c-0-0.017-0.001-0.037-0.001-0.057 0-0.22 0.026-0.434 0.074-0.639l-0.004 0.019c0.048-0.256 0.069-0.514 0.103-0.771 0.012-0.103 0.026-0.203 0.048-0.306 0-0.048 0.022-0.096 0.034-0.144s0.074-0.206 0.024-0.103c0.016-0.037 0.033-0.068 0.054-0.097l-0.001 0.002c0.077-0.091-0.062 0.072 0.019-0.017 0.024-0.025 0.050-0.049 0.077-0.071l0.002-0.001c-0.089 0.067 0.012 0 0.026 0s0.124-0.065 0.024-0.022c0.029-0.013 0.065-0.025 0.102-0.035l0.006-0.001 0.108-0.031c0.201-0.062-0.048 0 0.069-0.014 0.040-0.002 0.087-0.004 0.134-0.004s0.094 0.001 0.14 0.004l-0.006-0c0.153 0 0.067 0 0.034 0l0.11 0.024c0.109 0.026 0.198 0.054 0.285 0.087l-0.017-0.006c-0.069-0.029 0.184 0.12 0.153 0.093 0.088 0.078 0.166 0.163 0.236 0.254l0.003 0.004c0.091 0.135 0.188 0.296 0.277 0.462l0.015 0.030c0.195 0.299 0.378 0.642 0.529 1.002l0.016 0.043c0.287 0.871 0.163 1.807-0.026 2.685-0.227 1.053-0.553 2.087-0.718 3.154-0.117 0.761-0.050 1.534-0.175 2.29-0.054 0.387-0.168 0.737-0.334 1.057l0.009-0.018c-0.093 0.168-0.187 0.335-0.278 0.505-0.335 0.639-0.675 1.46-0.055 2.051 0.325 0.309 0.783 0.383 1.197 0.431 0.295 0.028 0.637 0.043 0.984 0.043 0.217 0 0.433-0.006 0.647-0.018l-0.030 0.001c1.352-0.043 2.692-0.156 4.044-0.156h0.45c0.062-0.004 0.134-0.007 0.207-0.007 0.324 0 0.638 0.047 0.934 0.134l-0.023-0.006 0.089 0.029c0.103 0.034-0.108-0.055-0.014 0 0.070 0.032 0.127 0.064 0.182 0.098l-0.008-0.004c0.031 0.019 0.175 0.124 0.108 0.069s0 0 0.014 0.014c0.045 0.048 0.098 0.089 0.144 0.136 0.221 0.223 0.369 0.519 0.406 0.848l0.001 0.007c0.003 0.037 0.004 0.081 0.004 0.124 0 0.327-0.079 0.635-0.22 0.906l0.005-0.011c-0.063 0.106-0.1 0.234-0.1 0.371s0.037 0.265 0.102 0.374l-0.002-0.003c0.23 0.293 0.423 0.631 0.563 0.995l0.009 0.027c0.111 0.28 0.175 0.605 0.175 0.945 0 0.004 0 0.008-0 0.013v-0.001c0 0.079 0 0.158-0.012 0.239-0.017 0.211 0.036-0.093-0.019 0.105-0.019 0.072-0.034 0.141-0.055 0.213 0 0.026-0.079 0.201-0.026 0.086-0.032 0.071-0.064 0.13-0.1 0.186l0.004-0.007c-0.019 0.036-0.117 0.165-0.036 0.067-0.050 0.058-0.101 0.112-0.154 0.162l-0.001 0.001c-0.041 0.034-0.031 0.029 0.024-0.014-0.034 0.026-0.069 0.048-0.105 0.072-0.218 0.133-0.361 0.369-0.361 0.639 0 0.134 0.035 0.26 0.098 0.369l-0.002-0.004c0.209 0.309 0.405 0.664 0.567 1.036l0.017 0.043c0.051 0.126 0.098 0.278 0.133 0.435l0.004 0.020c0.012 0.057 0.022 0.191 0.014 0.057 0 0.081 0 0.158 0 0.239s-0.014 0.163 0 0.029c0 0.055-0.019 0.11-0.031 0.165s-0.038 0.124-0.057 0.184c-0.050 0.158 0.036-0.048-0.022 0.060-0.152 0.282-0.297 0.517-0.454 0.743l0.016-0.025c-0.294 0.424-0.637 0.754-0.404 1.309 0.137 0.291 0.255 0.633 0.338 0.989l0.007 0.035c0 0.050 0.022 0.101 0.026 0.153 0-0.017 0-0.098 0 0s0 0.141 0.012 0.211 0 0.156 0 0.239c0 0.127 0.026-0.079 0 0.084-0.017 0.067-0.034 0.134-0.053 0.201s-0.065 0.148 0 0.036c-0.024 0.048-0.048 0.098-0.077 0.146s-0.146 0.191-0.041 0.074c-0.036 0.041-0.072 0.081-0.11 0.12s-0.16 0.146-0.091 0.089-0.060 0.041-0.084 0.055c-0.056 0.039-0.121 0.077-0.189 0.111l-0.010 0.004c-0.024 0.014-0.179 0.081-0.101 0.050s-0.117 0.041-0.141 0.048c-0.105 0.036-0.241 0.072-0.379 0.101l-0.025 0.004c-0.077 0.014-0.156 0.029-0.239 0.038 0.139-0.019-0.093 0-0.132 0l-0.811 0.060-1.505 0.091c-1.618 0.112-3.238 0.215-4.858 0.294-1.108 0.077-2.402 0.122-3.705 0.122-0.75 0-1.496-0.015-2.238-0.044l0.107 0.003c-0.29-0.017-0.582-0.038-0.871-0.069l-0.189-0.019c-0.115-0.014-0.239-0.053-0.026 0-0.112-0.026-0.239-0.034-0.345-0.055-0.443-0.075-0.827-0.17-1.199-0.29l0.060 0.017c-0.718-0.227-1.424-0.534-2.154-0.766l-0.357-0.112c-0.907-0.273-1.297 1.146-0.39 1.419 0.718 0.213 1.398 0.479 2.096 0.739 0.662 0.24 1.434 0.422 2.233 0.513l0.047 0.004c0.851 0.091 1.838 0.143 2.837 0.143 0.406 0 0.81-0.009 1.212-0.026l-0.057 0.002c2.618-0.055 5.234-0.225 7.844-0.407 1.061-0.034 2.062-0.12 3.048-0.256l-0.15 0.017c0.654-0.104 1.229-0.383 1.694-0.786l-0.004 0.004c1.211-1.096 0.83-2.824 0.239-4.138v0.742c0.45-0.629 0.984-1.28 1.106-2.072 0.163-1.079-0.34-2.075-0.902-2.965l-0.263 1.007c1.783-1.125 1.328-3.647 0.263-5.097v0.742c0.455-0.94 0.572-1.977 0.101-2.936-0.38-0.739-1.052-1.282-1.859-1.482l-0.020-0.004c-0.444-0.085-0.955-0.133-1.477-0.133-0.132 0-0.263 0.003-0.393 0.009l0.018-0.001c-0.519 0-1.036 0-1.555 0.026-0.883 0.057-1.766 0.115-2.649 0.136-0.292 0-0.584 0-0.876 0l-0.321-0.017-0.163-0.017c-0.12 0 0.187 0.038 0.017 0l-0.208-0.043c-0.023-0.010-0.052-0.020-0.081-0.028l-0.005-0.001c0-0.014 0.17 0.101 0.11 0.045-0.014-0.011-0.031-0.020-0.049-0.024l-0.001-0c-0.017 0-0.045-0.043-0.060-0.041s0.177 0.146 0.089 0.060c0.047 0.049 0.083 0.109 0.104 0.176l0.001 0.003c-0.034-0.122 0 0.239 0 0.045 0-0.103-0.065 0.225 0 0.019l0.057-0.177c0.043-0.134-0.041 0.081-0.024 0.057s0.038-0.086 0.057-0.124c0.239-0.514 0.567-0.986 0.739-1.534 0.239-0.778 0.239-1.611 0.27-2.415 0.023-0.468 0.090-0.908 0.197-1.332l-0.010 0.047c0.122-0.555 0.268-1.103 0.402-1.654 0.239-0.998 0.479-2.046 0.39-3.080-0.048-0.617-0.208-1.187-0.46-1.703l0.012 0.028c-0.17-0.352-0.385-0.699-0.581-1.036-0.438-0.817-1.263-1.377-2.223-1.435l-0.008-0c-0.060-0.006-0.129-0.010-0.199-0.010-0.923 0-1.706 0.6-1.982 1.431l-0.004 0.015c-0.144 0.479-0.146 1.010-0.239 1.491-0.046 0.209-0.073 0.45-0.073 0.696 0 0.053 0.001 0.106 0.004 0.158l-0-0.007c0 0.053 0 0.103 0 0.156 0 0.11 0.031-0.105 0 0l-0.029 0.1c-0.057 0.201 0.034-0.053-0.019 0.057-0.347 0.73-1.053 1.285-1.23 2.118-0.048 0.22-0.050 0.438-0.108 0.656-0.080 0.275-0.18 0.513-0.304 0.736l0.009-0.018c-0.293 0.54-0.579 0.993-0.891 1.427l0.027-0.039c-0.594 0.914-1.177 1.7-1.805 2.448l0.031-0.038c-0.366 0.406-0.748 0.777-1.155 1.12l-0.017 0.014c-0.249 0.229-0.521 0.445-0.808 0.64l-0.025 0.016c-0.292 0.186-0.629 0.348-0.984 0.469l-0.033 0.010c-0.313 0.098-0.537 0.386-0.537 0.725 0 0.064 0.008 0.127 0.023 0.187l-0.001-0.005c0.092 0.313 0.376 0.537 0.713 0.537 0.068 0 0.134-0.009 0.197-0.026l-0.005 0.001z"></path>
<path fill="#fff" d="M1.156 31.263l8.589-0.34 0.239-17.292c-4.185 0-5.061-0.017-9.244-0.017z"></path>
<path fill="#fff" d="M1.156 31.998l8.589-0.337c0.403-0.009 0.727-0.334 0.735-0.736v-0.001l0.081-5.851 0.127-9.319 0.029-2.113c-0.007-0.404-0.331-0.729-0.734-0.737h-0.001c-3.082 0-6.165-0.014-9.244-0.014-0.401 0.004-0.726 0.325-0.737 0.724l-0 0.001 0.141 5.983 0.239 9.508 0.053 2.168c0.022 0.957 1.493 0.957 1.472 0l-0.144-5.983-0.237-9.496-0.053-2.168-0.735 0.732c3.092 0 6.162 0 9.244 0l-0.737-0.718-0.079 5.844-0.129 9.316-0.029 2.123 0.737-0.735-8.589 0.337c-0.403 0.009-0.727 0.334-0.735 0.736v0.001c0.004 0.404 0.331 0.731 0.734 0.735h0z"></path>
</svg>
