<!-- Generated by IcoMoon.io -->
<svg version="1.1" xmlns="http://www.w3.org/2000/svg" width="33" height="32" viewBox="0 0 33 32">
<title>loyalty</title>
<path fill="#fff" d="M11.451 25.268c-0.13-0.442-0.321-0.827-0.567-1.17l0.008 0.012c-0.304-0.475-0.647-0.926-0.986-1.374-0.604-0.794-1.26-1.562-1.741-2.44-0.356-0.649-0.819-1.195-1.372-1.634l-0.011-0.008c-0.626-0.481-1.295-0.68-2.063-0.846-0.731-0.152-1.346-0.563-1.759-1.131l-0.006-0.008c-0.429-0.574-0.817-1.225-1.135-1.915l-0.028-0.068c-0.196-0.41-0.375-0.829-0.533-1.256-0.136-0.367-0.384-0.85-0.341-1.254 0.035-0.319 0.462-0.462 0.714-0.57 0.072-0.034 0.156-0.065 0.244-0.088l0.010-0.002c0.027-0.009 0.058-0.015 0.090-0.015h0c0.163 0.038 0.307 0.094 0.441 0.166l-0.009-0.005c0.065 0.036 0.143 0.057 0.225 0.057 0.169 0 0.317-0.088 0.401-0.221l0.001-0.002c0.038-0.066 0.060-0.144 0.060-0.228 0-0.168-0.090-0.316-0.224-0.396l-0.002-0.001c-0.28-0.163-0.613-0.266-0.968-0.282l-0.005-0c-0.405 0.057-0.77 0.194-1.090 0.395l0.012-0.007c-0.348 0.172-0.616 0.464-0.752 0.82l-0.003 0.010c-0.035 0.141-0.056 0.303-0.056 0.47 0 0.27 0.053 0.527 0.149 0.762l-0.005-0.014c0.315 0.976 0.669 1.806 1.087 2.597l-0.042-0.088c0.378 0.775 0.82 1.443 1.336 2.045l-0.011-0.013c0.538 0.586 1.258 0.997 2.070 1.144l0.023 0.003c0.415 0.066 0.788 0.183 1.135 0.345l-0.026-0.011c0.341 0.181 0.633 0.402 0.886 0.662l0.001 0.001c0.432 0.444 0.69 0.982 1.025 1.497 0.291 0.449 0.628 0.863 0.956 1.295 0.432 0.552 0.852 1.1 1.249 1.672 0.17 0.244 0.334 0.492 0.481 0.751 0.114 0.167 0.201 0.363 0.25 0.573l0.002 0.012c0.132 0.574 1.016 0.332 0.885-0.244z"></path>
<path fill="#fff" d="M4.315 13.019c-1.105-1.126-1.482-2.712-1.761-4.216-0.093-0.475-0.213-0.888-0.365-1.285l0.018 0.053c-0.106-0.302-0.248-0.673-0.035-0.96 0.272-0.367 0.783-0.259 1.034 0.117 0.242 0.414 0.45 0.893 0.599 1.397l0.012 0.046c0.179 0.514 0.347 1.031 0.542 1.538 0.061 0.194 0.239 0.333 0.45 0.333 0.040 0 0.079-0.005 0.117-0.015l-0.003 0.001c0.196-0.056 0.337-0.234 0.337-0.445 0-0.042-0.006-0.083-0.016-0.122l0.001 0.003c-0.201-0.522-0.373-1.055-0.559-1.584-0.191-0.611-0.418-1.137-0.692-1.633l0.023 0.045c-0.279-0.49-0.798-0.815-1.393-0.815-0.26 0-0.505 0.062-0.722 0.172l0.009-0.004c-0.362 0.204-0.626 0.546-0.723 0.952l-0.002 0.010c-0.117 0.501 0.058 0.986 0.229 1.45 0.137 0.41 0.26 0.908 0.344 1.419l0.008 0.059c0.114 0.575 0.238 1.052 0.385 1.517l-0.027-0.1c0.312 1.058 0.844 1.968 1.548 2.716l-0.003-0.003c0.414 0.432 1.062-0.227 0.647-0.647z"></path>
<path fill="#fff" d="M4.125 6.574c-0.035-0.375-0.112-0.749-0.125-1.126-0.007-0.041-0.011-0.088-0.011-0.137 0-0.241 0.099-0.46 0.259-0.616l0-0c0.533-0.488 1.12-0.060 1.431 0.451 0.343 0.565 0.514 1.262 0.734 1.886 0.235 0.665 0.505 1.318 0.796 1.961 0.082 0.137 0.229 0.227 0.397 0.227 0.084 0 0.163-0.022 0.231-0.062l-0.002 0.001c0.136-0.084 0.224-0.232 0.224-0.401 0-0.083-0.022-0.161-0.060-0.229l0.001 0.002c-0.25-0.548-0.481-1.118-0.686-1.692s-0.401-1.195-0.647-1.771c-0.274-0.634-0.766-1.234-1.446-1.45s-1.463 0.145-1.873 0.727c-0.457 0.647-0.205 1.51-0.138 2.229 0.006 0.251 0.207 0.453 0.457 0.46h0.001c0.253-0.002 0.457-0.207 0.46-0.459v-0z"></path>
<path fill="#fff" d="M6.797 5.351c-0.177-0.522-0.369-1.394 0.099-1.823 0.078-0.077 0.185-0.125 0.304-0.125 0.074 0 0.143 0.018 0.203 0.051l-0.002-0.001c0.227 0.128 0.411 0.307 0.542 0.522l0.004 0.006c0.682 1.014 1.010 2.255 1.491 3.37 0.081 0.136 0.228 0.226 0.396 0.226 0.085 0 0.164-0.023 0.232-0.063l-0.002 0.001c0.135-0.085 0.224-0.233 0.224-0.402 0-0.083-0.021-0.161-0.059-0.229l0.001 0.002c-0.432-1.021-0.759-2.102-1.308-3.070-0.302-0.535-0.712-1.062-1.312-1.264-0.12-0.037-0.257-0.058-0.4-0.058-0.537 0-1.004 0.302-1.241 0.745l-0.004 0.008c-0.397 0.703-0.302 1.612-0.054 2.348 0.060 0.194 0.238 0.333 0.448 0.333 0.040 0 0.079-0.005 0.116-0.014l-0.003 0.001c0.197-0.056 0.339-0.234 0.339-0.445 0-0.042-0.006-0.083-0.016-0.121l0.001 0.003z"></path>
<path fill="#fff" d="M9.459 4.963c0.032-0.388-0.063-0.949 0.216-1.273 0.216-0.259 0.647-0.129 0.863 0.041 0.388 0.296 0.604 0.8 0.79 1.232 0.239 0.565 0.47 1.135 0.703 1.7l1.448 3.498c0.466 1.126 1.031 2.266 1.249 3.476 0.216 1.251 0.496 2.514 0.561 3.787 0.030 0.587 0.947 0.589 0.917 0-0.067-1.312-0.358-2.589-0.57-3.884-0.216-1.351-0.863-2.617-1.374-3.871l-1.672-4.033c-0.432-1.046-0.816-2.44-1.985-2.889-0.167-0.074-0.363-0.117-0.568-0.117-0.42 0-0.799 0.18-1.062 0.467l-0.001 0.001c-0.442 0.544-0.375 1.215-0.432 1.869-0.052 0.587 0.863 0.585 0.917 0z"></path>
<path fill="#fff" d="M11.999 5.368c0.435 0.051 0.939 0.080 1.45 0.080 0.839 0 1.66-0.079 2.455-0.229l-0.082 0.013c1.079-0.199 2.158-0.718 2.842-1.592 0.352-0.447 0.563-1.005 0.956-1.418 0.359-0.352 0.804-0.616 1.301-0.758l0.022-0.005c1.102-0.342 2.37-0.54 3.683-0.54 0.020 0 0.041 0 0.061 0h-0.003c0.093-0.008 0.2-0.012 0.309-0.012 0.227 0 0.449 0.019 0.665 0.057l-0.023-0.003c0.289 0.069 0.36 0.259 0.406 0.539s0.073 0.518 0.091 0.775c0 0.045 0 0.093 0 0.14s0.017 0.052 0 0.063l0.041-0.069c0.032-0.045 0.125-0.043 0-0.039-0.589 0.017-0.591 0.934 0 0.917 0.012 0.001 0.025 0.001 0.039 0.001 0.465 0 0.841-0.377 0.841-0.841 0-0.030-0.002-0.060-0.005-0.089l0 0.004c0-0.257-0.052-0.518-0.082-0.775-0.019-0.347-0.114-0.667-0.269-0.95l0.006 0.012c-0.384-0.606-1.122-0.647-1.767-0.647-0.001 0-0.002 0-0.003 0-0.79 0-1.567 0.056-2.326 0.166l0.087-0.010c-1.256 0.173-2.684 0.432-3.638 1.329-0.473 0.457-0.695 1.066-1.092 1.571-0.365 0.442-0.833 0.786-1.367 1l-0.023 0.008c-0.63 0.242-1.359 0.397-2.119 0.431l-0.015 0.001c-0.315 0.028-0.682 0.043-1.052 0.043-0.49 0-0.973-0.027-1.449-0.081l0.058 0.005c-0.253 0.001-0.458 0.206-0.46 0.459v0c0.006 0.251 0.208 0.453 0.459 0.457h0z"></path>
<path fill="#fff" d="M24.099 3.741c1.51-0.727 3.236-0.47 4.835-0.25 0.254 0.020 0.55 0.032 0.848 0.032 0.128 0 0.256-0.002 0.383-0.006l-0.018 0.001c0.278 0 0.563 0.065 0.712 0.326 0.044 0.077 0.070 0.169 0.070 0.267 0 0.085-0.020 0.165-0.054 0.237l0.001-0.003c-0.103 0.207-0.293 0.357-0.522 0.403l-0.005 0.001c-0.377 0.070-0.811 0.11-1.254 0.11-0.106 0-0.212-0.002-0.316-0.007l0.015 0c-0.544 0-1.079 0-1.631 0.017-0.589 0.024-0.591 0.941 0 0.917 1.118-0.041 2.296 0.093 3.396-0.147 0.736-0.152 1.282-0.795 1.282-1.565 0-0.029-0.001-0.057-0.002-0.085l0 0.004c-0.038-0.42-0.244-0.786-0.55-1.033l-0.003-0.002c-0.323-0.228-0.725-0.364-1.159-0.364-0.064 0-0.127 0.003-0.189 0.009l0.008-0.001c-0.038 0.001-0.083 0.001-0.128 0.001-0.461 0-0.914-0.033-1.357-0.098l0.050 0.006c-0.539-0.073-1.079-0.136-1.627-0.158-0.125-0.008-0.272-0.013-0.419-0.013-1.021 0-1.99 0.225-2.859 0.628l0.042-0.018c-0.531 0.257-0.067 1.046 0.464 0.792z"></path>
<path fill="#fff" d="M30.257 5.662c0.322 0.078 0.647 0.125 0.969 0.216 0.272 0.037 0.507 0.173 0.672 0.369l0.001 0.002c0.094 0.128 0.15 0.289 0.15 0.464 0 0.138-0.036 0.269-0.098 0.382l0.002-0.004c-0.194 0.246-0.469 0.42-0.783 0.484l-0.009 0.001c-0.647 0.17-1.383 0.097-2.048 0.104s-1.383 0.047-2.073 0.114c-0.25 0.007-0.451 0.207-0.46 0.457l-0 0.001c0.001 0.253 0.206 0.458 0.459 0.46h0c0.647-0.063 1.295-0.104 1.942-0.112 0.134 0.003 0.292 0.005 0.451 0.005 0.52 0 1.035-0.021 1.545-0.061l-0.067 0.004c0.701-0.084 1.476-0.38 1.843-1.027 0.125-0.234 0.198-0.512 0.198-0.808 0-0.472-0.187-0.9-0.492-1.215l0 0c-0.509-0.514-1.295-0.552-1.968-0.712-0.574-0.138-0.818 0.747-0.244 0.885z"></path>
<path fill="#fff" d="M30.557 8.577c0.533 0 1.409 0.104 1.661 0.671 0.216 0.507-0.41 0.762-0.792 0.863-1.141 0.309-2.373 0.216-3.549 0.309-0.25 0.007-0.452 0.209-0.457 0.459v0.001c0.001 0.252 0.205 0.456 0.457 0.457h0c1.148-0.091 2.313-0.050 3.452-0.265 0.602-0.112 1.236-0.341 1.61-0.863 0.149-0.221 0.238-0.493 0.238-0.787 0-0.4-0.166-0.761-0.432-1.019l-0-0c-0.548-0.572-1.424-0.753-2.184-0.753-0.589 0-0.591 0.915 0 0.915z"></path>
<path fill="#fff" d="M29.95 11.183c0.356 0.158 1.163 0.304 1.271 0.759 0.123 0.509-0.546 0.829-0.926 0.926-0.673 0.173-1.4 0.155-2.089 0.198l-2.341 0.151c-1.547 0.101-3.111 0.274-4.665 0.272-0.020 0-0.044 0-0.067 0-0.598 0-1.175-0.087-1.721-0.249l0.043 0.011c-0.49-0.147-0.967-0.33-1.443-0.511-0.565-0.216-1.126-0.432-1.702-0.628-0.424-0.165-0.915-0.274-1.427-0.306l-0.014-0.001c-0.591 0-0.591 0.908 0 0.917 0.465 0.042 0.894 0.146 1.295 0.306l-0.031-0.011c0.563 0.188 1.116 0.408 1.672 0.619 0.522 0.198 1.046 0.401 1.586 0.55 0.54 0.142 1.159 0.223 1.797 0.223 0.116 0 0.232-0.003 0.346-0.008l-0.016 0.001c1.661-0.041 3.327-0.201 4.986-0.309l2.552-0.164c0.729-0.047 1.51-0.076 2.158-0.432s1.107-1.126 0.874-1.856c-0.244-0.766-1.023-0.956-1.672-1.243-0.065-0.036-0.143-0.057-0.226-0.057-0.168 0-0.316 0.088-0.4 0.22l-0.001 0.002c-0.039 0.066-0.062 0.146-0.062 0.231 0 0.168 0.090 0.315 0.224 0.396l0.002 0.001z"></path>
<path fill="#fff" d="M29.454 13.121c-0.582 0.696-1.166 1.469-1.71 2.271l-0.065 0.102c-0.559 0.75-1.123 1.609-1.638 2.501l-0.069 0.13c-0.325 0.584-0.553 1.266-0.644 1.992l-0.003 0.028c-0.014 0.133-0.023 0.287-0.023 0.442 0 0.717 0.173 1.394 0.481 1.99l-0.011-0.024c0.18 0.323 0.311 0.7 0.369 1.1l0.002 0.018c0.003 0.057 0.005 0.125 0.005 0.192 0 0.373-0.060 0.732-0.17 1.068l0.007-0.024c-0.283 0.899-0.63 1.677-1.055 2.405l0.030-0.055q-0.36 0.647-0.777 1.26c-0.166 0.244-0.412 0.716-0.757 0.703-0.215-0.035-0.407-0.115-0.572-0.23l0.005 0.003c-0.071-0.041-0.142-0.080-0.216-0.123-0.030-0.017-0.153-0.104-0.121-0.080-0.017-0.013-0.032-0.028-0.045-0.045l-0-0.001c-0.050-0.054 0.035 0.054 0 0-0.013-0.019-0.065-0.127-0.039-0.065-0.048-0.131-0.091-0.289-0.122-0.452l-0.003-0.020c-0.132-0.574-1.016-0.332-0.882 0.244 0.047 0.29 0.14 0.549 0.272 0.784l-0.006-0.012c0.175 0.23 0.4 0.415 0.658 0.539l0.011 0.005c0.391 0.216 0.816 0.432 1.275 0.354 0.407-0.086 0.748-0.32 0.972-0.642l0.003-0.005c0.514-0.665 0.985-1.414 1.38-2.209l0.035-0.079c0.418-0.743 0.752-1.603 0.957-2.512l0.012-0.064c0.043-0.211 0.067-0.455 0.067-0.703s-0.024-0.492-0.071-0.727l0.004 0.024c-0.13-0.478-0.299-0.893-0.51-1.283l0.016 0.031c-0.182-0.407-0.288-0.881-0.288-1.38 0-0.369 0.058-0.725 0.165-1.058l-0.007 0.024c0.3-1.057 0.995-1.985 1.605-2.883 0.718-1.1 1.416-2.043 2.163-2.943l-0.042 0.052c0.384-0.442-0.261-1.094-0.647-0.647z"></path>
<path fill="#fff" d="M22.545 25.46c-0.259 1.698-1.4 2.958-2.509 4.186-0.215 0.255-0.42 0.536-0.604 0.833l-0.018 0.031c-0.142 0.216-0.306 0.47-0.57 0.544-0.048 0.015-0.103 0.024-0.16 0.024-0.188 0-0.354-0.094-0.454-0.238l-0.001-0.002c-0.067-0.111-0.107-0.245-0.107-0.388s0.040-0.277 0.109-0.392l-0.002 0.003c0.449-0.941 1.122-1.761 1.674-2.639 0.315-0.501-0.479-0.96-0.792-0.462-0.567 0.902-1.26 1.748-1.713 2.719-0.388 0.831-0.121 1.873 0.781 2.222 0.154 0.059 0.333 0.093 0.519 0.093 0.279 0 0.54-0.076 0.763-0.209l-0.007 0.004c0.34-0.236 0.616-0.54 0.815-0.893l0.007-0.013c0.526-0.813 1.258-1.474 1.838-2.253 0.649-0.814 1.115-1.802 1.318-2.882l0.006-0.041c0.008-0.034 0.013-0.072 0.013-0.112 0-0.212-0.139-0.392-0.331-0.453l-0.003-0.001c-0.036-0.010-0.076-0.015-0.119-0.015-0.211 0-0.388 0.141-0.444 0.334l-0.001 0.003z"></path>
<path fill="#fff" d="M17.442 29.586c-0.401 0.362-0.885 1.092-1.51 0.995-0.751-0.121-0.751-0.902-0.509-1.474 0.257-0.604 0.71-1.154 1.079-1.7s0.718-1.137 1.044-1.726c0.285-0.516-0.507-0.98-0.792-0.462-0.384 0.695-0.798 1.361-1.241 2.022-0.501 0.747-1.079 1.495-1.148 2.423-0.005 0.050-0.008 0.107-0.008 0.166 0 0.877 0.672 1.597 1.529 1.672l0.006 0c0.96 0.11 1.558-0.68 2.196-1.258 0.432-0.397-0.216-1.044-0.647-0.647z"></path>
<path fill="#fff" d="M14.888 28.19c-0.298 0.432-0.826 1.012-1.407 0.973s-0.475-0.738-0.341-1.137c0.265-0.677 0.577-1.26 0.947-1.799l-0.019 0.030c0.283-0.457 0.574-0.908 0.841-1.374 0.293-0.514-0.498-0.975-0.792-0.462-0.337 0.583-0.71 1.141-1.053 1.726-0.432 0.736-0.941 1.564-0.958 2.445-0.002 0.025-0.002 0.054-0.002 0.084 0 0.779 0.632 1.411 1.411 1.411 0.024 0 0.049-0.001 0.073-0.002l-0.003 0c0.893-0.039 1.614-0.729 2.093-1.426 0.038-0.066 0.061-0.145 0.061-0.23 0-0.168-0.089-0.315-0.223-0.397l-0.002-0.001c-0.065-0.037-0.144-0.059-0.227-0.059-0.168 0-0.315 0.088-0.398 0.221l-0.001 0.002z"></path>
<path fill="#fff" d="M12.79 26.623c-0.337 0.216-0.809 0.71-1.251 0.624-0.339-0.065-0.432-0.544-0.416-0.826 0.047-0.552 0.384-1.055 0.66-1.51q0.516-0.874 1.031-1.743l2.011-3.403c0.315-0.533 0.624-1.079 0.967-1.59 0.342-0.496 0.709-0.93 1.116-1.325l0.002-0.002c0.945-0.941 1.929-1.847 2.956-2.699 0.081-0.084 0.132-0.198 0.132-0.324s-0.050-0.24-0.132-0.324l0 0c-0.084-0.080-0.198-0.13-0.324-0.13s-0.24 0.050-0.324 0.13l0-0c-1.027 0.85-2.011 1.758-2.956 2.699s-1.64 2.11-2.337 3.286l-2.229 3.759c-0.362 0.615-0.757 1.221-1.079 1.858-0.289 0.567-0.505 1.206-0.362 1.849 0.132 0.598 0.591 1.137 1.221 1.204 0.71 0.078 1.221-0.391 1.782-0.74 0.498-0.311 0.039-1.105-0.464-0.792z"></path>
<path fill="#fff" d="M15.039 12.368l0.604 4.531 3.623-2.79-4.227-1.741z"></path>
<path fill="#fff" d="M15.626 16.944l-0.617-4.615 4.315 1.774-0.035 0.026zM15.069 12.413l0.593 4.445 3.554-2.742z"></path>
</svg>
