<!-- Generated by IcoMoon.io -->
<svg version="1.1" xmlns="http://www.w3.org/2000/svg" width="55" height="32" viewBox="0 0 55 32">
<title>purity</title>
<path fill="#fff" d="M23.328 12.82c1.741 2.12 3.078 4.644 3.851 7.404l0.034 0.144c0.807-2.904 2.145-5.428 3.914-7.584l-0.029 0.036c0.351-0.418 0.72-0.815 1.099-1.19-0.51-5.29-3.626-9.767-5.113-11.629-1.465 1.831-4.517 6.211-5.091 11.394 0.466 0.446 0.902 0.911 1.312 1.398l0.022 0.027z"></path>
<path fill="#fff" d="M25.865 29.708c-0.61 0.861-2.033 1.566-3.998 1.95-2.832 0.552-6.437 0.421-10.149-0.366-5.778-1.227-10.069-5.784-11.718-7.789 1.932-0.971 6.251-2.811 10.988-2.689 0.374 0.552 0.732 1.024 1.112 1.478l-0.023-0.028c4.353 5.183 11.061 6.929 13.787 7.445z"></path>
<path fill="#fff" d="M28.664 29.689c1.355 2.015 7.020 3.122 14.169 1.602 5.775-1.221 10.072-5.781 11.718-7.789-1.877-0.937-5.995-2.695-10.549-2.695-0.186 0-0.375 0-0.565 0-0.372 0.548-0.728 1.018-1.106 1.468l0.022-0.027c-4.304 5.134-10.9 6.901-13.689 7.441z"></path>
<path fill="#fff" d="M26.115 27.547l-0.305-0.058-0.546-0.122c-2.79-0.656-7.844-2.32-11.293-6.193l-0.262-0.305c-0.269-0.305-0.516-0.644-0.751-0.977q-0.412-0.577-0.763-1.175c-2.442-4.172-2.872-8.995-2.93-11.199 2.137 0.43 6.785 1.663 10.466 4.765 0.369 0.305 0.723 0.641 1.068 0.986 0.305 0.305 0.577 0.61 0.849 0.916 0.107 0.122 0.208 0.247 0.305 0.375 2.381 3.028 3.403 6.715 3.837 9.593l0.046 0.305c0.070 0.504 0.122 0.98 0.162 1.419 0.021 0.253 0.040 0.494 0.052 0.72 0.046 0.369 0.061 0.681 0.067 0.949z"></path>
<path fill="#fff" d="M45.14 7.524c-0.058 2.207-0.485 7.020-2.939 11.208-0.235 0.4-0.491 0.797-0.766 1.184-0.232 0.324-0.476 0.644-0.739 0.955-0.095 0.113-0.195 0.226-0.305 0.336-3.559 3.986-8.852 5.622-11.562 6.227l-0.098 0.021-0.43 0.092c0-0.363 0.031-0.8 0.067-1.288 0-0.064 0-0.128 0-0.195 0.046-0.537 0.11-1.132 0.204-1.773-0.001-0.003-0.001-0.006-0.001-0.009s0-0.006 0.001-0.009l-0 0c0-0.095 0.027-0.189 0.043-0.287 0.458-2.71 1.416-6.129 3.538-9.029 0.189-0.259 0.391-0.519 0.61-0.769s0.388-0.446 0.589-0.656q0.522-0.549 1.081-1.038c3.721-3.242 8.507-4.527 10.707-4.969z"></path>
</svg>
