<!-- Generated by IcoMoon.io -->
<svg version="1.1" xmlns="http://www.w3.org/2000/svg" width="49" height="32" viewBox="0 0 49 32">
<title>respect</title>
<path fill="#fff" d="M5.709 30.968c0 0.016 0 0.016-0.016 0.016s0 0 0 0z"></path>
<path fill="#fff" d="M5.712 30.968s0 0 0-0.025c0.118-0.033 0.074-0.008 0 0.025z"></path>
<path fill="#fff" d="M15.032 7.081c-0.511-0.911-1.315-1.605-2.283-1.963l-0.030-0.010c-0.894-0.274-1.92-0.239-2.837-0.145-0.912 0.092-1.731 0.235-2.529 0.432l0.123-0.026c-1.644 0.381-3.077 1.124-4.266 2.143l0.013-0.011c-1.439 1.309-2.531 2.975-3.138 4.859l-0.022 0.079c-0.274 0.823 0.365 1.704 0.911 2.277l0.14 0.14c-0.093 1.671-0.291 3.32-0.39 4.977-0.038 0.624-0.060 1.353-0.060 2.088 0 1.028 0.043 2.047 0.126 3.054l-0.009-0.132c0.094 1.732 0.409 3.356 0.919 4.892l-0.038-0.132c0.213 0.69 0.554 1.286 0.998 1.788l-0.005-0.005c0.601 0.617 1.424 0.689 2.247 0.549 0.593-0.093 1.372-0.167 1.567-0.823 0.037-0.13 0.064-0.282 0.074-0.438l0-0.006c0.134 0.185 0.311 0.332 0.516 0.427l0.008 0.003c0.417 0.179 0.903 0.284 1.413 0.284 0.463 0 0.906-0.086 1.314-0.243l-0.025 0.008c0.541-0.192 0.921-0.699 0.921-1.296 0-0.052-0.003-0.103-0.008-0.154l0.001 0.006c-0.022-0.502-0.058-1.004-0.096-1.503q-0.162-2.285-0.395-4.562c-0.132-1.407-0.274-2.818-0.439-4.219-0.060-0.486-0.162-0.971-0.195-1.457-0.007-0.085-0.011-0.185-0.011-0.285 0-0.649 0.173-1.257 0.476-1.781l-0.009 0.017c0.691-1.185 1.92-1.934 2.982-2.757 0.539-0.397 1.005-0.849 1.404-1.356l0.012-0.015c0.169-0.233 0.316-0.5 0.43-0.784l0.009-0.025c0.147-0.311 0.291-0.688 0.407-1.076l0.015-0.060c0.099-0.321 0.157-0.691 0.157-1.074 0-0.614-0.147-1.193-0.408-1.705l0.010 0.021zM5.704 30.985c-0.027 0 0 0 0 0v0c0.003 0 0 0-0.011 0zM5.723 30.968s0 0 0-0.025c0.107-0.033 0.063-0.008-0.011 0.025z"></path>
<path fill="#fff" d="M21.328 3.465c0 1.861-1.508 3.369-3.369 3.369s-3.369-1.508-3.369-3.369c0-1.861 1.508-3.369 3.369-3.369s3.369 1.508 3.369 3.369z"></path>
<path fill="#fff" d="M17.959 6.933c-0.001 0-0.002 0-0.003 0-1.915 0-3.468-1.553-3.468-3.468s1.553-3.468 3.468-3.468c1.915 0 3.468 1.553 3.468 3.468v0c-0.002 1.914-1.552 3.465-3.465 3.468h-0zM17.959 0.192c-1.808 0-3.273 1.465-3.273 3.273s1.465 3.273 3.273 3.273c1.808 0 3.273-1.465 3.273-3.273v0c-0.002-1.807-1.466-3.271-3.273-3.273h-0z"></path>
<path fill="#fff" d="M43.237 23.435s0 0 0 0l-0.016-0.027s0 0 0.016 0 0.003 0.025 0 0.027z"></path>
<path fill="#fff" d="M43.246 23.451v-0.016s0.003 0.016 0 0.016z"></path>
<path fill="#fff" d="M43.443 30.971v0s0 0 0 0c-0.030-0.013-0.055-0.026-0.078-0.042l0.002 0.001h0.074s0 0.036 0.003 0.041z"></path>
<path fill="#fff" d="M43.46 30.985v0 0z"></path>
<path fill="#fff" d="M48.030 14.867l0.143-0.14c0.573-0.601 1.191-1.484 0.886-2.343-0.393-1.11-0.878-2.069-1.466-2.955l0.031 0.049c-0.94-1.44-2.224-2.583-3.739-3.328l-0.055-0.024c-1.36-0.622-2.939-1.039-4.6-1.166l-0.047-0.003c-0.916-0.088-1.951-0.132-2.834 0.176-0.994 0.393-1.79 1.11-2.274 2.018l-0.011 0.024c-0.219 0.466-0.347 1.012-0.347 1.588 0 0.4 0.062 0.785 0.176 1.147l-0.007-0.027c0.19 0.731 0.494 1.372 0.896 1.939l-0.012-0.018c0.823 1.097 2.049 1.772 3.073 2.642 1.097 0.944 1.866 2.085 1.739 3.591-0.038 0.475-0.137 0.949-0.195 1.424-0.077 0.637-0.145 1.276-0.211 1.92-0.274 2.774-0.598 5.567-0.713 8.354-0.004 0.037-0.005 0.079-0.005 0.123 0 0.622 0.414 1.147 0.981 1.315l0.010 0.002c0.361 0.133 0.779 0.21 1.214 0.21 0.536 0 1.045-0.117 1.503-0.326l-0.023 0.009c0.187-0.096 0.342-0.232 0.458-0.397l0.003-0.004c0.013 0.172 0.043 0.331 0.086 0.483l-0.004-0.017c0.046 0.172 0.143 0.316 0.273 0.421l0.002 0.001c0.122 0.082 0.266 0.143 0.42 0.174l0.008 0.001c0.278 0.091 0.613 0.171 0.957 0.223l0.036 0.005c0.809 0.112 1.588 0 2.159-0.617 1.012-1.097 1.328-2.809 1.561-4.225 0.508-3.095 0.442-6.241 0.154-9.353-0.099-0.963-0.167-1.929-0.222-2.897zM43.235 23.44l-0.016-0.027s0 0 0.016 0 0 0 0 0 0 0.025 0 0.027zM43.451 30.985v0 0s0 0 0 0c-0.030-0.013-0.055-0.026-0.078-0.042l0.002 0.001h0.074s0 0 0 0.016v0z"></path>
<path fill="#fff" d="M43.443 30.971v0c-0.030-0.013-0.055-0.026-0.078-0.042l0.002 0.001h0.074s0 0.036 0.003 0.041z"></path>
<path fill="#fff" d="M43.446 30.974v0 0z"></path>
<path fill="#fff" d="M34.554 3.465c0 1.861-1.508 3.369-3.369 3.369s-3.369-1.508-3.369-3.369c0-1.861 1.508-3.369 3.369-3.369s3.369 1.508 3.369 3.369z"></path>
<path fill="#fff" d="M31.185 6.933c-0.001 0-0.002 0-0.003 0-1.915 0-3.468-1.553-3.468-3.468s1.553-3.468 3.468-3.468c1.915 0 3.468 1.553 3.468 3.468v0c-0.002 1.914-1.552 3.465-3.465 3.468h-0zM31.185 0.192c-1.808 0-3.273 1.465-3.273 3.273s1.465 3.273 3.273 3.273c1.808 0 3.273-1.465 3.273-3.273v0c-0.002-1.807-1.466-3.271-3.273-3.273h-0z"></path>
</svg>
